<?xml version="1.0" standalone="no"?>
<!DOCTYPE svg PUBLIC "-//W3C//DTD SVG 20010904//EN"
 "http://www.w3.org/TR/2001/REC-SVG-20010904/DTD/svg10.dtd">
<svg version="1.0" xmlns="http://www.w3.org/2000/svg"
 width="500.000000pt" height="500.000000pt" viewBox="0 0 500.000000 500.000000"
 preserveAspectRatio="xMidYMid meet">

<g transform="translate(0.000000,500.000000) scale(0.100000,-0.100000)"
fill="#000000" stroke="none">
<path d="M392 3324 c-90 -24 -164 -66 -228 -129 -103 -102 -148 -217 -146
-375 2 -256 152 -443 399 -495 293 -62 568 93 638 360 19 76 19 204 0 280 -47
182 -184 317 -366 360 -80 18 -227 18 -297 -1z m281 -222 c96 -43 157 -135
165 -248 12 -190 -107 -325 -288 -326 -154 -1 -259 77 -296 223 -34 132 24
280 131 337 88 46 203 52 288 14z"/>
<path d="M1470 3215 l0 -105 160 0 160 0 0 -390 0 -390 110 0 110 0 0 390 0
390 160 0 160 0 0 105 0 105 -430 0 -430 0 0 -105z"/>
<path d="M2520 3175 l0 -125 1140 0 1140 0 0 125 0 125 -1140 0 -1140 0 0
-125z"/>
<path d="M4127 2604 c-91 -22 -167 -64 -233 -129 -101 -99 -144 -208 -144
-360 0 -158 41 -266 140 -366 194 -196 563 -196 759 0 95 96 141 212 141 361
0 152 -43 262 -141 361 -123 126 -333 179 -522 133z m274 -223 c56 -29 105
-75 132 -126 19 -34 22 -56 22 -145 0 -96 -2 -109 -27 -150 -58 -99 -139 -144
-258 -144 -177 0 -293 117 -294 294 0 135 69 240 186 282 71 25 178 20 239
-11z"/>
<path d="M2510 2495 l0 -105 155 0 155 0 0 -385 0 -385 110 0 110 0 0 385 0
385 155 0 155 0 0 105 0 105 -420 0 -420 0 0 -105z"/>
<path d="M0 1735 l0 -125 1110 0 1110 0 0 125 0 125 -1110 0 -1110 0 0 -125z"/>
</g>
</svg>
