<?xml version="1.0" standalone="no"?>
<!DOCTYPE svg PUBLIC "-//W3C//DTD SVG 20010904//EN"
 "http://www.w3.org/TR/2001/REC-SVG-20010904/DTD/svg10.dtd">
<svg version="1.0" xmlns="http://www.w3.org/2000/svg"
 width="500.000000pt" height="500.000000pt" viewBox="0 0 500.000000 500.000000"
 preserveAspectRatio="xMidYMid meet">

<g transform="translate(0.000000,500.000000) scale(0.100000,-0.100000)"
fill="#000000" stroke="none">
<path d="M0 2500 l0 -2500 2500 0 2500 0 0 2500 0 2500 -2500 0 -2500 0 0
-2500z m870 820 c202 -59 330 -238 330 -460 0 -142 -46 -258 -139 -350 -190
-188 -535 -186 -726 5 -172 173 -178 491 -12 672 131 143 339 193 547 133z
m1518 -92 l3 -98 -151 0 -150 0 0 -370 0 -370 -110 0 -110 0 0 370 0 370 -145
0 -145 0 0 100 0 100 403 -2 402 -3 3 -97z m2272 -53 l0 -115 -1035 0 -1035 0
0 115 0 115 1035 0 1035 0 0 -115z m-210 -481 c157 -45 268 -148 320 -298 61
-179 17 -387 -111 -515 -196 -195 -559 -185 -744 21 -86 96 -120 203 -113 357
8 156 62 266 175 353 130 98 305 129 473 82z m-1022 -96 l3 -98 -151 0 -150 0
0 -370 0 -370 -110 0 -110 0 0 370 0 370 -145 0 -145 0 0 100 0 100 403 -2
402 -3 3 -97z m-1108 -733 l0 -115 -1035 0 -1035 0 0 115 0 115 1035 0 1035 0
0 -115z"/>
<path d="M614 3129 c-65 -19 -127 -71 -159 -133 -56 -111 -35 -264 48 -344
105 -102 302 -98 404 8 67 68 90 190 57 299 -20 69 -90 141 -159 164 -52 18
-140 21 -191 6z"/>
<path d="M4186 2490 c-104 -41 -157 -121 -164 -248 -4 -77 -2 -87 27 -147 50
-100 127 -146 246 -146 71 0 124 15 173 51 147 106 143 360 -8 461 -79 53
-184 64 -274 29z"/>
</g>
</svg>
