<svg width="421" height="337" viewBox="0 0 421 337" fill="none" xmlns="http://www.w3.org/2000/svg">
<path fill-rule="evenodd" clip-rule="evenodd" d="M195.597 2.78718C195 4.93818 194.509 7.26118 194.506 7.94818C194.497 9.97718 193.31 9.41918 189.292 5.49518C186.002 2.28318 185.5 2.06418 185.5 3.84618C185.5 4.97518 186.002 7.34018 186.616 9.10018C187.229 10.8602 187.528 12.5032 187.28 12.7512C187.033 12.9992 184.754 12.5772 182.218 11.8142C179.681 11.0502 177.349 10.6822 177.035 10.9962C176.336 11.6952 182.508 18.1982 183.87 18.1982C184.408 18.1982 183.758 17.0102 182.424 15.5572L180 12.9162L182.5 13.5492C183.875 13.8972 186.079 14.4812 187.397 14.8452C189.936 15.5472 189.959 15.1732 187.837 7.69818C187.4 6.15818 188.089 6.47918 190.834 9.09418L194.397 12.4912L195.633 7.59418L196.868 2.69818L197.727 6.19818C199.344 12.7842 199.313 12.7682 203.147 9.11318C205.9 6.48918 206.599 6.16118 206.163 7.69818C204.041 15.1732 204.064 15.5472 206.603 14.8452C214.052 12.7852 214.26 12.8412 210.75 15.9582C208.963 17.5452 207.5 19.1312 207.5 19.4822C207.5 19.8342 209.412 20.6492 211.75 21.2952L216 22.4692L213 23.4132C211.35 23.9322 209.363 24.5602 208.585 24.8092C207.559 25.1382 208.108 26.2472 210.585 28.8452C213.209 31.5982 213.537 32.2972 212 31.8612C204.549 29.7462 204.173 29.7692 204.847 32.3032C206.914 40.0732 206.941 39.9882 203.559 36.4042C201.849 34.5932 200.062 33.3502 199.588 33.6432C199.115 33.9362 198.382 35.8682 197.96 37.9372L197.192 41.6982L196.096 38.0302C194.495 32.6722 193.788 32.4522 190.41 36.2612C187.127 39.9622 187.121 39.9432 189.153 32.3032C189.827 29.7692 189.451 29.7462 182 31.8612C180.463 32.2972 180.791 31.5982 183.415 28.8452C187.07 25.0112 187.086 25.0422 180.5 23.4252L177 22.5662L181.75 21.3682C184.363 20.7092 186.5 19.6782 186.5 19.0772C186.5 18.4302 185.785 18.2762 184.75 18.6992C183.787 19.0932 181.425 19.8412 179.5 20.3612C173.06 22.1022 172.782 22.3442 175.75 23.6182C178.127 24.6382 167.756 26.5182 99.352 37.4632C12.201 51.4092 15.5 50.6092 15.5 57.7762C15.5 59.5532 19.55 86.2932 24.5 117.198C29.45 148.103 33.5 173.572 33.5 173.794C33.5 174.016 31.725 174.198 29.556 174.198C26.827 174.198 24.747 174.942 22.806 176.612C20.214 178.843 20.02 179.51 20.256 185.362C20.537 192.293 26.911 293.927 28.522 317.142C29.585 332.461 30.621 335.688 34.816 336.741C37.738 337.475 135.325 331.401 138 330.319C139.21 329.83 141.185 330.023 143 330.809C144.65 331.523 148.724 332.128 152.054 332.153C166.876 332.263 177.521 320.529 176.271 305.456L175.835 300.198H179.148C180.969 300.198 203.397 301.562 228.987 303.229C260.714 305.296 276.103 305.946 277.362 305.272C279.078 304.353 279.251 304.928 279.798 313.366C280.286 320.894 280.768 322.855 282.617 324.823C285.495 327.886 284.86 327.892 342.421 324.202C386.688 321.364 388.949 321.125 391.171 319.038C394.221 316.172 394.236 317.069 390.063 251.611C388.173 221.959 386.318 192.06 385.941 185.169L385.254 172.64L396.107 173.383C407.649 174.174 410.175 173.542 412.446 169.299C413.713 166.932 420.972 56.2152 420.09 52.7032C419.692 51.1152 418.221 49.5962 416.224 48.7102C411.837 46.7642 262.334 37.1242 258.145 38.5172C256.409 39.0952 254.759 40.6882 253.934 42.5822C253.189 44.2962 252.561 45.2482 252.539 44.6982C252.517 44.1482 251.628 38.3572 250.563 31.8302C249.065 22.6482 248.121 19.4232 246.389 17.5802C243.635 14.6482 241.582 14.6082 226 17.1782C219.4 18.2662 212.907 19.1662 211.57 19.1772C209.33 19.1962 209.467 18.9182 213.327 15.6142C215.63 13.6432 217.287 11.6622 217.008 11.2112C216.73 10.7612 214.403 11.0252 211.836 11.7972C209.27 12.5702 206.967 12.9992 206.72 12.7512C206.472 12.5032 206.771 10.8602 207.384 9.10018C207.998 7.34018 208.5 4.97518 208.5 3.84618C208.5 2.06418 207.998 2.28318 204.708 5.49518C202.622 7.53218 200.637 9.19818 200.296 9.19818C199.955 9.19818 199.389 7.50118 199.039 5.42818C197.99 -0.779816 196.834 -1.66682 195.597 2.78718ZM313.995 15.2122C313.671 16.2342 312.865 17.2112 312.203 17.3842C311.436 17.5842 311.767 18.4522 313.115 19.7752L315.23 21.8532L317.141 19.7752C319.027 17.7262 319.023 17.6692 316.819 15.5272C314.701 13.4682 314.554 13.4522 313.995 15.2122ZM244.89 18.4482C246.959 20.3082 247.682 22.4832 249.065 30.9962C249.984 36.6602 250.571 41.4352 250.368 41.6072C249.952 41.9612 246.327 42.5502 117.36 63.2022C65.858 71.4502 22.836 78.1982 21.756 78.1982C20.038 78.1982 19.575 76.8732 18.048 67.5662C16.203 56.3252 16.717 52.8842 20.41 51.7382C23.218 50.8672 178.641 26.1982 181.322 26.1982C183.88 26.1982 183.866 26.2402 179.953 30.3302L176 34.4632L179.133 33.8792C180.857 33.5572 183.514 32.9822 185.039 32.5992C187.601 31.9562 187.758 32.0842 187.116 34.3012C186.734 35.6192 186.184 38.2732 185.894 40.1982L185.366 43.6982L189.42 39.3342C192.136 36.4102 193.628 35.4202 193.938 36.3342C194.193 37.0842 194.891 39.6102 195.489 41.9482C196.088 44.2862 196.767 46.1982 197 46.1982C197.233 46.1982 197.912 44.2862 198.511 41.9482C199.109 39.6102 199.807 37.0842 200.062 36.3342C200.372 35.4202 201.864 36.4102 204.58 39.3342L208.634 43.6982L208.106 40.1982C207.816 38.2732 207.266 35.6192 206.884 34.3012C206.242 32.0842 206.399 31.9562 208.961 32.5992C210.486 32.9822 213.143 33.5572 214.867 33.8792L218 34.4632L214.25 30.5382C210.275 26.3792 209.725 25.2012 211.75 25.1922C212.438 25.1892 214.699 24.7152 216.776 24.1382C220.719 23.0432 220.965 21.2552 217.191 21.1192C213.6 20.9902 217.002 20.0932 228.319 18.1852C242.248 15.8372 241.983 15.8332 244.89 18.4482ZM63.25 24.2812C61.58 26.1112 61.591 26.2892 63.5 28.1982C65.892 30.5902 66.5 30.6922 66.5 28.6982C66.5 27.8732 67.175 27.1982 68 27.1982C69.994 27.1982 69.892 26.5902 67.5 24.1982C65.161 21.8592 65.467 21.8532 63.25 24.2812ZM339 44.1252C380.25 46.8152 414.746 49.3142 415.658 49.6792C418.633 50.8682 419.449 55.1542 418.705 65.6982L418 75.6982L410.5 75.4202C406.375 75.2672 400.525 74.9452 397.5 74.7042C394.475 74.4642 362.75 72.4442 327 70.2162C291.25 67.9882 260.087 65.9202 257.75 65.6202L253.5 65.0752L253.584 59.3872C253.815 43.8412 255.632 39.1762 261.441 39.2162C262.849 39.2252 297.75 41.4342 339 44.1252ZM251.875 48.9662C252.444 53.2562 248.051 128.98 247.183 129.848C246.99 130.041 241.358 129.905 234.666 129.545C224.475 128.997 222.498 128.632 222.485 127.294C222.447 123.381 221.37 123.22 208.97 125.279C201.86 126.46 194.767 127.059 191.5 126.753C188.475 126.471 180.825 125.958 174.5 125.615C168.175 125.271 162.885 124.884 162.744 124.755C162.604 124.626 165.641 123.957 169.494 123.268C175.037 122.278 176.5 121.649 176.5 120.259C176.5 118.773 178.629 118.162 190.25 116.311C209.569 113.234 208.307 113.638 207.748 110.713C207.467 109.246 206.586 108.2 205.633 108.203C204.735 108.206 195.675 109.558 185.5 111.207C95.405 125.814 47.166 133.284 45.949 132.817C44.19 132.142 43.934 125.198 45.667 125.198C46.993 125.198 201.518 100.504 205.75 99.6162C207.523 99.2442 208.5 98.3972 208.5 97.2322C208.5 95.8342 209.576 95.2782 213.25 94.7742C223.286 93.3972 223.641 93.2412 223.308 90.3562C223.077 88.3622 222.5 87.7602 221 87.9472C219.9 88.0842 179.457 94.5152 131.126 102.239C82.795 109.963 43.063 116.094 42.833 115.864C42.603 115.634 42.159 113.87 41.846 111.944L41.278 108.442L47.639 107.343C51.138 106.738 92.25 100.15 139 92.7042C185.75 85.2572 225.238 78.9112 226.75 78.6022C228.509 78.2422 229.5 77.3982 229.5 76.2592C229.5 74.8932 230.721 74.2692 234.75 73.5772C239.511 72.7592 239.975 72.4492 239.728 70.2482C239.579 68.9142 239.316 67.6812 239.144 67.5082C238.864 67.2282 48.782 97.4102 42.386 98.7502C39.964 99.2572 39.717 98.9812 39.029 94.9982C38.62 92.6332 38.068 91.2722 37.801 91.9752C37.106 93.8032 48.978 168.054 50.133 169.107C50.49 169.432 50.504 167.579 50.166 164.989C49.552 160.302 49.565 160.277 52.775 159.715C54.549 159.405 70.175 156.911 87.5 154.172C104.825 151.433 119.92 148.983 121.045 148.728C123.017 148.279 123.075 148.608 122.68 157.98C122.455 163.325 122.133 167.85 121.964 168.036C121.355 168.707 35.985 173.908 35.382 173.311C34.546 172.481 20.095 81.2692 20.704 80.6612C21.361 80.0042 249.841 43.3862 250.618 43.8132C250.958 44.0002 251.524 46.3192 251.875 48.9662ZM267.723 49.7552C263.964 52.3872 265.436 57.1982 270 57.1982C274.393 57.1982 276.313 51.2382 272.566 49.2332C270.134 47.9322 270.36 47.9082 267.723 49.7552ZM283.105 50.4972C281.923 51.3622 281.441 52.7842 281.664 54.7472C281.941 57.1772 282.521 57.7572 284.951 58.0342C286.914 58.2572 288.336 57.7752 289.201 56.5932C290.937 54.2182 290.85 53.5482 288.5 51.1982C286.15 48.8482 285.48 48.7612 283.105 50.4972ZM298.071 51.7692C295.051 54.7902 296.789 59.1982 301 59.1982C305.564 59.1982 307.036 54.3872 303.277 51.7552C300.509 49.8162 300.024 49.8172 298.071 51.7692ZM61.723 54.7552C57.964 57.3872 59.436 62.1982 64 62.1982C68.211 62.1982 69.949 57.7902 66.929 54.7692C64.976 52.8172 64.491 52.8162 61.723 54.7552ZM45.7 57.3982C43.826 59.2722 44.285 63.0132 46.538 64.2182C49.141 65.6122 52.224 64.6422 53.004 62.1852C54.401 57.7852 48.911 54.1872 45.7 57.3982ZM31.25 59.2782C29.241 60.4482 28.932 64.2302 30.7 65.9982C34.584 69.8822 40.686 64.2712 37.004 60.2022C34.982 57.9682 33.82 57.7812 31.25 59.2782ZM335.5 72.3192C380.325 75.1702 417.171 77.6432 417.38 77.8132C417.588 77.9842 416.482 98.2242 414.921 122.791C411.653 174.23 412.135 172.203 403.177 172.191C400.33 172.187 394.962 171.897 391.25 171.546L384.5 170.909V167.776C384.5 164.403 382.439 160.771 379.69 159.3C378.617 158.725 361.817 159.424 334.491 161.179C310.571 162.715 290.848 163.834 290.662 163.664C290.476 163.494 290.637 160.432 291.02 156.86L291.715 150.365L296.858 150.818C304.577 151.499 394.529 157.208 396.388 157.135C397.587 157.087 397.487 156.867 396 156.273C394.9 155.835 388.6 155.168 382 154.791C370.171 154.116 318.883 150.834 300.634 149.584L291.269 148.943L291.747 144.697C292.3 139.796 290.551 134.85 287.861 133.705C286.838 133.269 278.001 132.365 268.224 131.696C258.447 131.027 250.158 130.189 249.802 129.834C249.034 129.066 252.623 67.2122 253.438 67.1662C253.747 67.1492 290.675 69.4682 335.5 72.3192ZM238.253 70.4482C237.921 71.4492 132.932 88.9262 44.75 102.659C41.345 103.189 40.5 103.022 40.5 101.821C40.5 100.799 42.006 100.095 45.225 99.6122C47.823 99.2222 91.136 92.2582 141.475 84.1372C191.814 76.0152 234.275 69.3312 235.833 69.2842C237.681 69.2282 238.523 69.6332 238.253 70.4482ZM306.675 84.2772C304.296 85.4902 300.921 88.3872 299.175 90.7152C296.111 94.8012 295.773 94.9652 289.492 95.4232C285.913 95.6832 281.502 96.6632 279.69 97.6002C275.836 99.5932 269.768 105.657 267.193 110.088C264.178 115.279 266.734 113.464 271.134 107.29C275.941 100.543 281.471 97.3662 289.923 96.4942L295.436 95.9252L290.823 104.551C283.136 118.924 278.129 123.573 268.597 125.185L264 125.963L268.29 126.08C277.036 126.32 283.351 120.884 291.588 106.027C296.782 96.6592 298.11 95.9382 304.327 99.1092C309.826 101.915 313.536 106.768 320.605 120.4C327.302 133.317 332.674 139.32 339.145 141.117C350.954 144.395 358.861 139.577 369.219 122.792C373.953 115.121 374.365 114.749 383.1 110.247C392.538 105.383 401.5 99.4352 401.5 98.0352C401.5 97.5822 398.508 99.2602 394.851 101.763C387.868 106.544 379.308 111.198 377.498 111.198C375.923 111.198 377.71 108.251 383.52 101.269C387.363 96.6522 390.153 94.4822 395.75 91.7592C402.761 88.3482 403.227 86.7382 396.372 89.6112C390.409 92.1102 384.138 97.7182 378.524 105.57C372.456 114.058 370.362 115.182 360.616 115.192C348.684 115.205 343.944 111.979 335.687 98.2282C328.846 86.8352 324.551 83.3432 316.445 82.5842C312.114 82.1782 310.115 82.5252 306.675 84.2772ZM325.809 87.4842C327.855 89.0452 331.767 94.2482 334.91 99.5882C341.35 110.531 344.61 113.593 352.157 115.787C356.59 117.075 358.997 117.2 364.341 116.416C368.003 115.879 371.17 115.593 371.378 115.78C372.28 116.593 362.139 131.276 358.11 134.99C352.171 140.464 347.104 141.806 340.081 139.765C332.889 137.674 328.215 132.391 320.909 118.098C314.196 104.965 308.348 98.3402 301.733 96.3752L297.467 95.1082L300.226 91.4912C304.772 85.5302 308.009 84.0422 315.61 84.4202C320.968 84.6852 322.9 85.2662 325.809 87.4842ZM222.041 90.2652C222.404 90.8512 222.543 91.4812 222.35 91.6642C221.952 92.0422 46.671 120.207 44.75 120.202C44.063 120.2 43.5 119.619 43.5 118.911C43.5 117.978 67.669 113.734 131.25 103.502C179.513 95.7352 219.536 89.3402 220.191 89.2892C220.846 89.2392 221.679 89.6782 222.041 90.2652ZM206.5 110.619C206.5 112.242 205.695 112.442 188 115.22C180.85 116.343 166.843 118.597 156.874 120.23C146.905 121.862 137.037 123.198 134.945 123.198C132.853 123.198 129.76 123.682 128.071 124.273C122.851 126.1 46.42 137.878 45.843 136.945C45.544 136.461 45.554 135.81 45.866 135.499C46.177 135.188 71.309 130.936 101.716 126.051C132.122 121.166 167.575 115.433 180.5 113.31C208.875 108.65 206.5 108.896 206.5 110.619ZM155.5 125.697C161.275 125.997 168.475 126.469 171.5 126.746C174.525 127.023 201.439 128.811 231.308 130.72C261.177 132.628 286.459 134.641 287.49 135.193C290.336 136.716 290.785 139.517 290.01 150.886L289.3 161.304L280.15 160.65C275.118 160.291 238.15 157.894 198 155.323L125 150.651L125.056 147.424C125.363 129.578 125.419 129.188 128.066 126.541C130.481 124.126 131.053 124.01 137.816 124.564C141.767 124.888 149.725 125.398 155.5 125.697ZM220.5 126.698C220.5 127.882 219.089 128.198 213.8 128.198C204.223 128.198 207.391 125.912 217.75 125.348C219.594 125.247 220.5 125.692 220.5 126.698ZM124.485 133.448C124.476 135.235 124.139 137.213 123.735 137.842C123.168 138.724 59.522 149.677 50.044 150.523C48.514 150.66 47.948 149.876 47.448 146.928C46.892 143.651 47.082 143.094 48.904 142.667C50.057 142.397 67.425 139.521 87.5 136.277C107.575 133.033 124.113 130.338 124.25 130.288C124.387 130.239 124.493 131.661 124.485 133.448ZM138.167 134.865C136.71 136.321 137.545 141.152 139.428 142.159C143.294 144.228 147.558 140.043 145.5 136.198C144.456 134.248 139.656 133.375 138.167 134.865ZM153.743 136.355C151.913 138.185 152.226 140.64 154.559 142.751C156.776 144.758 158.871 144.143 160.928 140.881C163.192 137.293 156.819 133.279 153.743 136.355ZM168.57 138.067C166.454 142.021 170.626 146.271 174.558 144.167C176.101 143.341 176.54 142.268 176.308 139.882C176.04 137.113 175.585 136.658 172.816 136.39C170.462 136.162 169.356 136.599 168.57 138.067ZM123.5 141.619C123.5 142.4 122.262 143.298 120.75 143.614C118.146 144.158 49.639 155.198 48.866 155.198C48.664 155.198 48.5 154.564 48.5 153.788C48.5 152.824 50.631 152.03 55.25 151.275C98.554 144.196 122.132 140.357 122.75 140.285C123.162 140.237 123.5 140.837 123.5 141.619ZM215.194 158.075C255.451 160.648 288.574 162.966 288.8 163.225C289.262 163.755 289.041 167.495 283.999 244.695C281.251 286.766 280.06 300.221 278.93 301.945C276.823 305.161 283.21 305.415 158.022 297.132C149.234 296.551 141.873 295.904 141.664 295.695C141.455 295.486 139.558 268.082 137.449 234.798C135.329 201.333 133.131 173.378 132.534 172.262C131.245 169.853 128.407 168.198 125.566 168.198C123.259 168.198 123.049 166.597 124.151 157.423L124.785 152.148L133.392 152.772C138.127 153.116 174.937 155.502 215.194 158.075ZM4.5 157.44C4.5 158.239 3.488 159.345 2.25 159.897L0 160.903L2.186 161.597C3.388 161.979 4.513 162.927 4.686 163.704C4.915 164.734 5.558 164.485 7.065 162.78L9.13 160.444L6.815 158.216C5.147 156.611 4.5 156.394 4.5 157.44ZM381.273 162.636C382.756 164.522 383.332 167.397 383.815 175.333C384.159 180.975 384.288 185.744 384.101 185.93C383.802 186.229 294.75 192.167 290.238 192.189C288.731 192.197 288.572 191.597 289.14 188.046C289.505 185.762 290.636 183.062 291.652 182.046C293.972 179.726 294.002 177.609 291.744 175.675C290.43 174.55 290.078 173.04 290.345 169.685C290.684 165.41 290.851 165.195 293.851 165.135C295.583 165.1 312.3 164.031 331 162.76C377.592 159.591 378.875 159.588 381.273 162.636ZM130.75 172.351C131.798 173.59 132.503 176.08 132.507 178.559C132.511 180.835 132.794 185.659 133.136 189.278L133.757 195.857L114.879 197.056C104.495 197.716 82.05 199.131 65 200.201C47.95 201.271 31.456 202.371 28.347 202.647L22.694 203.147L21.971 191.576C21.293 180.717 21.374 179.879 23.302 177.951C25.221 176.032 28.604 175.684 74.678 172.654C101.805 170.87 125.125 169.607 126.5 169.847C127.875 170.087 129.787 171.214 130.75 172.351ZM151.969 171.485L149.939 173.698L152.219 176.106C154.078 178.069 154.5 178.202 154.5 176.824C154.5 175.894 155.505 174.762 156.734 174.307L158.967 173.481L156.798 172.793C155.605 172.414 154.487 171.467 154.314 170.688C154.08 169.631 153.486 169.833 151.969 171.485ZM317.25 173.278C315.241 174.448 314.932 178.23 316.7 179.998C318.586 181.884 322.315 181.411 323.536 179.131C324.396 177.523 324.288 176.523 323.048 174.631C321.325 172.001 319.98 171.688 317.25 173.278ZM300.996 175.202C297.314 179.271 303.416 184.882 307.3 180.998C309.137 179.161 308.728 175.39 306.566 174.233C303.853 172.782 303.062 172.919 300.996 175.202ZM65.7 183.398C64.157 184.941 64.157 188.455 65.7 189.998C67.476 191.774 69.954 191.458 72.004 189.194C75.686 185.125 69.584 179.514 65.7 183.398ZM50.071 184.769C48.011 186.83 48.086 188.514 50.329 190.543C53.599 193.503 57.5 191.955 57.5 187.698C57.5 183.487 53.092 181.749 50.071 184.769ZM34.511 185.685C33.818 186.52 33.546 188.245 33.891 189.618C35.015 194.099 40.993 194.067 42.12 189.575C42.863 186.616 41.01 184.198 38 184.198C36.76 184.198 35.19 184.867 34.511 185.685ZM184.5 185.801C173.114 188.848 160.811 198.885 155.544 209.426C141.514 237.502 158.372 270.525 189.675 276.287C213.566 280.685 238.306 263.003 242.617 238.448C244.396 228.309 245.636 228.839 221.504 229.419C209.981 229.695 200.752 229.599 200.996 229.205C201.239 228.811 209.116 223.633 218.5 217.698C227.884 211.763 235.807 206.51 236.107 206.025C237.126 204.376 223.199 191.639 217.388 188.908C206.962 184.007 195.317 182.907 184.5 185.801ZM201.863 185.976C202.418 186.874 196.962 227.069 196.179 227.853C195.376 228.655 165.417 199.95 165.807 198.753C166.561 196.437 176.347 190.094 182 188.257C190.791 185.399 200.796 184.25 201.863 185.976ZM211.827 188.138C214.928 189.205 219.397 191.407 221.756 193.03C227.301 196.845 234.962 205.159 233.857 206.162C231.387 208.403 199.195 228.226 198.749 227.78C197.682 226.714 203.762 186.198 204.989 186.198C205.648 186.198 208.725 187.071 211.827 188.138ZM384.902 194.948C385.235 198.66 387.125 227.334 389.101 258.666L392.694 315.635L390.041 317.916C388.582 319.171 386.176 320.198 384.694 320.197C383.212 320.196 360.441 321.578 334.092 323.266L286.184 326.337L283.891 324.017C281.824 321.927 281.578 320.661 281.401 311.198C281.214 301.267 288.169 195.195 289.066 194.299C289.532 193.833 368.375 188.555 378.149 188.336L384.297 188.198L384.902 194.948ZM133.936 203.448C134.593 210.349 141.505 319.421 141.502 322.837C141.501 324.014 140.688 325.979 139.697 327.204C137.943 329.369 136.486 329.521 87.447 332.667C57.775 334.57 36.068 335.56 34.738 335.07C33.493 334.613 32.051 333.217 31.532 331.968C30.805 330.218 22.295 205.1 22.868 204.578C22.941 204.512 47.525 202.881 77.5 200.953C107.475 199.024 132.302 197.391 132.67 197.322C133.039 197.254 133.609 200.011 133.936 203.448ZM238.457 210.831C228.306 217.228 219.572 222.853 219.05 223.331C218.511 223.823 228.35 224.198 241.8 224.198H265.5V221.592C265.5 215.483 259.819 199.198 257.687 199.198C257.262 199.198 248.609 204.433 238.457 210.831ZM411.5 203.572C411.5 204.502 410.712 205.585 409.75 205.98C408.132 206.644 408.16 206.855 410.115 208.775L412.23 210.853L414.146 208.775C416.037 206.724 416.033 206.668 413.781 204.29C411.922 202.327 411.5 202.194 411.5 203.572ZM314.902 213.884C313.058 214.247 312.849 214.868 313.181 218.998C313.956 228.635 318.5 302.247 318.5 305.165C318.5 307.194 318.004 308.198 317 308.198C315.944 308.198 315.5 307.13 315.5 304.59C315.5 300.09 312.746 255.915 311.938 247.448C311.355 241.344 311.272 241.198 308.42 241.198C305.615 241.198 305.5 241.38 305.5 245.81C305.5 250.589 308.038 291.96 309.005 302.948C309.449 307.991 309.276 309.198 308.107 309.198C306.479 309.198 306.126 306.413 304.505 280.78C303.951 272.026 303.346 264.71 303.159 264.524C302.972 264.337 301.51 264.446 299.91 264.766L297 265.348L298.182 283.023C299.819 307.503 299.807 309.198 298 309.198C297.175 309.198 296.5 309.684 296.5 310.278C296.5 310.999 298.576 311.16 302.75 310.763C306.188 310.436 316.65 309.705 326 309.139C335.35 308.572 349.3 307.686 357 307.168C364.7 306.651 372.238 306.221 373.75 306.213C376.818 306.196 377.475 304.686 374.727 303.968C373.125 303.549 372.739 300.078 370.741 268.198C369.524 248.78 368.329 232.694 368.086 232.45C367.842 232.207 366.362 232.289 364.796 232.633L361.948 233.258L364.164 267.478C365.383 286.299 366.407 302.486 366.44 303.448C366.473 304.41 365.887 305.198 365.138 305.198C363.488 305.198 363.259 302.776 360.468 255.698C359.326 236.448 358.183 219.686 357.927 218.448C357.57 216.722 356.768 216.198 354.481 216.198C352.056 216.198 351.5 216.618 351.501 218.448C351.502 220.423 356.032 293.019 356.728 302.198C356.922 304.757 356.591 305.698 355.496 305.698C354.241 305.698 353.649 300.304 351.823 272.198C350.625 253.773 349.613 236.785 349.573 234.448C349.509 230.724 349.221 230.2 347.25 230.213C342.476 230.246 342.504 229.928 344.525 261.22C345.571 277.433 346.698 294.126 347.029 298.316C347.519 304.522 347.355 306.04 346.145 306.504C344.462 307.15 344.192 304.831 342.498 275.198C340.805 245.602 340.743 245.198 337.889 245.198C336.541 245.198 335.16 245.921 334.821 246.804C334.482 247.687 334.953 260.4 335.867 275.054C337.858 306.982 337.86 307.198 336.186 307.198C335.164 307.198 334.33 298.465 332.436 267.948L330 228.698L327.128 228.903C325.549 229.016 324.064 229.3 323.829 229.535C323.594 229.77 324.516 247.228 325.878 268.33C328.118 303.057 328.139 310.17 325.992 308.024C325.584 307.615 319.588 221.003 319.514 214.448C319.5 213.196 318.816 213.112 314.902 213.884ZM118.18 221.969C116.584 222.322 116.427 223.134 116.905 228.535C117.206 231.925 117.697 239.198 117.998 244.698C119.028 263.567 119.474 266.198 121.64 266.198C123.437 266.198 123.542 265.651 123.029 258.948C122.725 254.96 122.023 244.977 121.469 236.763C120.916 228.549 120.359 221.769 120.232 221.697C120.104 221.625 119.181 221.747 118.18 221.969ZM119.793 233.698C120.171 240.503 120.072 242.42 119.482 239.698C118.635 235.791 118.137 222.455 118.869 223.281C119.072 223.511 119.488 228.198 119.793 233.698ZM208.049 250.663C213.847 260.485 218.369 269.097 218.098 269.803C217.243 272.032 204.852 275.198 196.984 275.198C179.366 275.198 163.917 265.513 156.394 249.753C154.833 246.484 153.721 243.644 153.922 243.443C154.946 242.419 196.109 231.543 196.754 232.125C197.169 232.5 202.252 240.842 208.049 250.663ZM241.148 237.294C240.246 245.925 235.437 255.42 228.41 262.448C225.247 265.611 222.057 268.198 221.321 268.198C220.584 268.198 219.346 267.186 218.569 265.948C216.937 263.349 200.769 235.561 199.368 232.948C198.488 231.306 199.771 231.198 220.107 231.198H241.785L241.148 237.294ZM39.488 234.948C39.46 238.938 41.713 275.796 42.054 276.931C42.266 277.636 43.144 277.888 44.103 277.52C45.604 276.944 45.713 275.491 45.125 263.787C43.722 235.874 43.393 233.198 41.357 233.198C40.26 233.198 39.495 233.914 39.488 234.948ZM42.658 245.448C42.846 250.261 42.663 254.198 42.25 254.198C41.837 254.198 41.5 251.329 41.5 247.823C41.5 244.317 41.215 239.929 40.868 238.073C40.432 235.748 40.559 235.009 41.276 235.698C41.848 236.248 42.47 240.636 42.658 245.448ZM106.574 239.448C106.743 249.171 109.08 279.112 109.721 279.752C110.102 280.133 111.007 280.217 111.733 279.939C112.818 279.522 112.839 276.277 111.849 261.565C111.188 251.738 110.614 241.785 110.574 239.448C110.512 235.889 110.175 235.198 108.5 235.198C106.802 235.198 106.511 235.84 106.574 239.448ZM109.765 248.117C110.042 253.297 109.923 256.897 109.502 256.117C108.522 254.303 107.62 236.895 108.56 237.926C108.946 238.351 109.489 242.936 109.765 248.117ZM56.494 240.948C56.481 245.001 58.68 278.887 59.09 280.948C59.362 282.313 60.269 283.198 61.396 283.198C62.974 283.198 63.198 282.556 62.884 278.948C62.255 271.733 60.5 244.298 60.5 241.678C60.5 239.865 59.962 239.198 58.5 239.198C57.264 239.198 56.498 239.867 56.494 240.948ZM59.765 251.117C60.042 256.297 59.923 259.897 59.502 259.117C58.522 257.303 57.62 239.895 58.56 240.926C58.946 241.351 59.489 245.936 59.765 251.117ZM101.485 244.448C101.477 246.236 102.006 256.136 102.661 266.448C103.744 283.492 104.018 285.198 105.676 285.198C107.895 285.198 107.886 285.551 106.322 260.448C105.233 242.974 104.956 241.198 103.311 241.198C101.938 241.198 101.496 241.983 101.485 244.448ZM104.382 255.115C104.549 265.584 103.877 263.578 103.237 251.698C102.938 246.145 103.047 243.032 103.481 244.698C103.911 246.348 104.317 251.036 104.382 255.115ZM112.58 245.948C112.623 248.011 113.186 257.793 113.83 267.686C114.897 284.085 115.169 285.707 116.907 286.04C118.736 286.39 118.786 285.832 118.132 272.552C116.783 245.189 116.41 242.198 114.352 242.198C112.864 242.198 112.516 242.936 112.58 245.948ZM115.702 253.956C115.93 259.048 115.801 262.873 115.415 262.456C115.028 262.039 114.526 257.532 114.298 252.44C114.07 247.348 114.199 243.523 114.585 243.94C114.972 244.357 115.474 248.864 115.702 253.956ZM45.857 251.448C46.183 255.436 46.704 263.198 47.015 268.698C47.985 285.88 48.419 288.198 50.666 288.198C52.455 288.198 52.592 287.697 52.096 282.948C51.795 280.061 51.311 273.423 51.02 268.198C49.822 246.638 49.441 244.198 47.265 244.198C45.394 244.198 45.303 244.667 45.857 251.448ZM48.756 255.698C49.05 261.211 48.933 264.576 48.494 263.198C47.72 260.762 47.143 244.452 47.861 245.281C48.059 245.511 48.462 250.198 48.756 255.698ZM96.494 253.448C96.491 255.785 97.015 265.686 97.659 275.448C98.723 291.574 98.998 293.198 100.665 293.198C102.871 293.198 102.832 294.613 101.321 269.448C100.217 251.052 99.941 249.198 98.303 249.198C96.849 249.198 96.499 250.022 96.494 253.448ZM99.442 264.115C99.528 273.595 98.843 271.149 98.207 259.698C97.829 252.893 97.928 250.976 98.518 253.698C98.995 255.898 99.411 260.586 99.442 264.115ZM63.011 252.181C62.676 252.722 62.629 254.634 62.906 256.431C63.182 258.228 63.66 264.873 63.967 271.198C64.899 290.385 65.621 296.198 67.07 296.198C67.792 296.198 68.629 295.798 68.931 295.309C69.234 294.82 69.026 287.057 68.471 278.059C67.019 254.538 66.586 251.198 64.987 251.198C64.234 251.198 63.345 251.64 63.011 252.181ZM51.998 254.201C51.657 254.753 51.616 257.115 51.906 259.451C52.197 261.787 52.686 268.423 52.994 274.198C53.997 293.02 54.661 298.198 56.07 298.198C56.792 298.198 57.634 297.79 57.942 297.292C58.25 296.793 58.054 289.481 57.507 281.042C55.914 256.472 55.499 253.198 53.979 253.198C53.231 253.198 52.339 253.649 51.998 254.201ZM66.258 269.198L66.233 273.698L65.454 268.698C65.026 265.948 64.702 261.223 64.735 258.198L64.794 252.698L65.538 258.698C65.948 261.998 66.272 266.723 66.258 269.198ZM55.266 271.198L55.25 275.698L54.449 271.198C54.009 268.723 53.681 263.998 53.721 260.698L53.794 254.698L54.538 260.698C54.948 263.998 55.275 268.723 55.266 271.198ZM69.192 259.948C68.957 260.361 69.359 269.248 70.085 279.698C70.811 290.148 71.427 299.936 71.453 301.448C71.5 304.172 73.713 305.28 74.988 303.217C75.567 302.28 73.996 272.335 72.901 263.448C72.569 260.755 71.872 259.198 70.998 259.198C70.239 259.198 69.426 259.535 69.192 259.948ZM85.853 266.448C86.175 269.886 86.695 277.648 87.009 283.698C87.943 301.73 88.383 304.198 90.666 304.198C92.454 304.198 92.592 303.693 92.107 298.948C91.812 296.061 91.316 288.748 91.004 282.698C89.995 263.105 89.51 260.198 87.254 260.198C85.421 260.198 85.312 260.681 85.853 266.448ZM72.26 276.698L72.218 281.698L71.458 276.198C71.04 273.173 70.717 268.448 70.74 265.698L70.782 260.698L71.542 266.198C71.96 269.223 72.283 273.948 72.26 276.698ZM88.763 271.698C89.062 277.251 88.953 280.364 88.519 278.698C87.742 275.72 87.168 260.483 87.862 261.281C88.061 261.511 88.467 266.198 88.763 271.698ZM92.694 265.057C91.631 265.731 91.591 269.136 92.481 283.292C93.927 306.289 94.322 309.198 96.002 309.198C96.761 309.198 97.569 308.861 97.797 308.448C98.025 308.035 97.63 299.373 96.919 289.198C96.208 279.023 95.598 269.236 95.563 267.448C95.498 264.096 94.941 263.632 92.694 265.057ZM94.5 271.558C94.5 274.507 94.788 279.119 95.141 281.808C95.496 284.516 95.399 286.341 94.924 285.897C93.845 284.891 92.731 266.196 93.75 266.197C94.162 266.198 94.5 268.61 94.5 271.558ZM75.123 271.448C75.624 277.093 77.5 307.008 77.5 309.353C77.5 310.531 78.223 311.198 79.5 311.198C81.851 311.198 81.784 312.631 80.461 290.826C79.119 268.712 78.87 267.198 76.578 267.198C75.03 267.198 74.804 267.857 75.123 271.448ZM78.272 283.198L78.218 288.698L77.458 283.198C77.04 280.173 76.713 275.448 76.733 272.698L76.767 267.698L77.546 272.698C77.974 275.448 78.301 280.173 78.272 283.198ZM80.9 276.448C81.199 279.335 81.693 286.423 81.998 292.198C82.807 307.487 83.672 316.2 84.379 316.183C87.275 316.111 87.479 314.363 86.477 298.141C84.892 272.485 84.695 271.198 82.356 271.198C80.541 271.198 80.406 271.683 80.9 276.448ZM84.258 289.198L84.233 293.698L83.454 288.698C83.026 285.948 82.702 281.223 82.735 278.198L82.794 272.698L83.538 278.698C83.948 281.998 84.272 286.723 84.258 289.198ZM148.214 299.912C146.595 301.531 146.405 301.531 144.786 299.912C143.167 298.293 143.262 298.198 146.5 298.198C149.738 298.198 149.833 298.293 148.214 299.912ZM158.957 299.129C160.034 300.87 157.315 301.442 155.69 299.816C154.199 298.325 154.241 298.198 156.227 298.198C157.412 298.198 158.641 298.617 158.957 299.129ZM143.853 301.036C145.41 302.756 145.388 302.99 143.508 304.691C141.532 306.479 141.5 306.45 141.5 302.853C141.5 298.645 141.612 298.559 143.853 301.036ZM154.545 301.281C155.435 302.945 155.307 303.753 153.911 305.297C152.186 307.203 152.13 307.199 149.832 305.041C147.652 302.992 147.609 302.736 149.156 301.025C151.328 298.626 153.17 298.713 154.545 301.281ZM164.793 299.825C165.138 300.17 164.731 301.785 163.888 303.415C162.413 306.268 162.284 306.312 160.42 304.625C158.609 302.987 158.591 302.755 160.147 301.036C161.838 299.167 163.661 298.692 164.793 299.825ZM170.5 300.781C170.5 302.547 168.347 302.24 167.729 300.386C167.511 299.732 168.046 299.198 168.917 299.198C169.787 299.198 170.5 299.91 170.5 300.781ZM173.893 300.78C174.958 303.555 174.578 305.165 173 304.56C172.175 304.243 171.5 302.907 171.5 301.591C171.5 298.886 172.974 298.386 173.893 300.78ZM169.462 307.332C168.296 311.395 168.366 311.36 165.612 309.282C163.322 307.555 163.304 307.427 164.979 304.87C166.358 302.765 167.071 302.433 168.533 303.216C170.042 304.023 170.204 304.743 169.462 307.332ZM149 306.198C150.747 308.128 150.747 308.268 148.993 310.206C147.292 312.086 147.058 312.108 145.338 310.551C143.204 308.621 143.014 307.084 144.7 305.398C146.33 303.768 146.896 303.873 149 306.198ZM160.939 307.099C161.242 307.589 160.619 309.049 159.556 310.344L157.622 312.698L155.374 310.483C153.195 308.337 153.182 308.207 154.939 306.265C156.726 304.291 159.436 304.667 160.939 307.099ZM175.108 309.534C174.789 310.724 174.521 312.261 174.514 312.948C174.496 314.54 173.346 314.537 171.159 312.938C169.7 311.871 169.608 311.186 170.561 308.453C171.544 305.634 171.938 305.362 173.687 306.298C175.101 307.055 175.518 308.004 175.108 309.534ZM154.394 315.485C152.224 317.242 152.094 317.236 150.141 315.283C148.175 313.318 148.172 313.218 149.982 311.218L151.838 309.167L154.236 311.419L156.633 313.672L154.394 315.485ZM165.305 311.016L167.609 312.789L165.434 315.555L163.259 318.32L160.929 316.131C158.696 314.033 158.67 313.845 160.3 311.602C162.345 308.786 162.398 308.78 165.305 311.016ZM144.214 314.912C142.595 316.531 142.5 316.436 142.5 313.198C142.5 309.96 142.595 309.865 144.214 311.484C145.833 313.103 145.833 313.293 144.214 314.912ZM173.5 316.803C173.5 317.509 172.402 319.349 171.059 320.892L168.618 323.698L166.448 321.559L164.277 319.419L166.517 316.389C168.484 313.728 169.047 313.49 171.129 314.439C172.433 315.033 173.5 316.097 173.5 316.803ZM148.468 319.425C144.164 322.91 141.148 320.464 144.8 316.449C146.747 314.31 146.938 314.285 148.752 315.926C150.622 317.619 150.617 317.685 148.468 319.425ZM159.671 316.853C162.09 319.042 161.982 319.836 159.002 321.788C156.623 323.348 156.416 323.316 154.634 321.115C152.798 318.848 152.802 318.773 154.882 317.035C157.507 314.841 157.45 314.843 159.671 316.853ZM153.3 321.398C155.333 323.431 154.642 324.92 151.362 325.576C149.019 326.044 147.899 325.759 146.939 324.451C145.84 322.953 145.969 322.522 147.827 321.483C150.608 319.929 151.812 319.91 153.3 321.398ZM167.5 325.157C167.5 325.959 161.994 329.198 160.631 329.198C160.048 329.198 159.086 328.293 158.494 327.186C157.594 325.506 157.877 324.776 160.208 322.76L163 320.346L165.25 322.446C166.488 323.602 167.5 324.821 167.5 325.157ZM145.077 326.036C142.942 326.453 142.074 325.696 142.989 324.216C143.484 323.416 144.12 323.467 145.245 324.399C146.656 325.569 146.64 325.732 145.077 326.036ZM157.165 330.426C155.038 331.78 150.734 331.25 150.083 329.555C149.336 327.606 149.218 327.73 153 326.482C155.584 325.629 156.162 325.782 157.165 327.588C158.053 329.184 158.053 329.862 157.165 330.426ZM227.5 327.44C227.5 328.239 226.488 329.345 225.25 329.897L223 330.903L225.186 331.597C226.388 331.979 227.513 332.929 227.686 333.708C227.92 334.765 228.545 334.553 230.154 332.87L232.308 330.616L229.904 328.302C228.198 326.66 227.5 326.41 227.5 327.44ZM148.696 329.576C149.078 330.161 149.278 330.753 149.139 330.892C148.525 331.506 141.5 329.008 141.5 328.176C141.5 326.967 147.79 328.191 148.696 329.576Z" fill="black"/>
</svg>
