<svg width="380" height="261" viewBox="0 0 380 261" fill="none" xmlns="http://www.w3.org/2000/svg">
<path fill-rule="evenodd" clip-rule="evenodd" d="M250.627 2.62C250.197 4.334 249.063 5.468 247.349 5.898L244.729 6.55601L247.005 7.773C248.256 8.443 249.858 10.067 250.565 11.381L251.849 13.771L252.867 11.107C253.427 9.641 254.889 8.124 256.116 7.734L258.346 7.026L256.033 5.789C254.761 5.108 253.172 3.527 252.502 2.276L251.285 0L250.627 2.62ZM51.711 25.268C51.424 26.367 50.326 27.604 49.272 28.018C47.503 28.713 47.604 29.015 50.58 31.951C53.576 34.908 53.84 34.99 54.327 33.127C54.616 32.025 55.785 30.878 56.926 30.58C59.536 29.898 59.594 28.594 57.051 27.787C55.979 27.447 54.824 26.292 54.484 25.22C53.685 22.704 52.375 22.727 51.711 25.268ZM331.059 37.871C330.953 39.856 337.007 47.317 339.73 48.557C341.874 49.533 331.641 49.871 287.448 50.284L232.5 50.797L287.482 51.034L342.464 51.271L338.982 53.641C337.067 54.945 334.471 57.983 333.213 60.391C331.955 62.8 331.505 63.923 332.213 62.887C337.274 55.478 340.536 53.106 347.5 51.772L351.5 51.005L346.033 49.732C340.677 48.485 335.993 44.725 332.309 38.714C331.654 37.646 331.091 37.266 331.059 37.871ZM183.129 43.457C179.311 45.5 177.791 47.47 171.129 59.015L163.5 72.233L149.987 72.252L136.473 72.271L135.24 67.08C130.725 48.07 107.987 40.728 93.399 53.569C88.495 57.886 85.547 62.838 84.472 68.568L83.777 72.271H44.812H5.846L2.923 75.194L0 78.117V130.271V182.425L2.923 185.348L5.846 188.271H50.923C75.715 188.271 96 188.424 96 188.611C96 188.798 94.658 191.386 93.018 194.361C88.044 203.386 89.488 210.874 97.323 216.679C100.139 218.765 100.397 218.771 190 218.771C279.603 218.771 279.861 218.765 282.677 216.679C290.512 210.874 291.956 203.386 286.982 194.361C285.342 191.386 284 188.798 284 188.611C284 188.424 304.285 188.271 329.077 188.271H374.154L377.077 185.348L380 182.425V130.271V78.117L377.077 75.194L374.154 72.271L295.327 72.256L216.5 72.242L209 59.187C200.993 45.25 198.206 42.492 191.222 41.596C188.548 41.253 186.269 41.777 183.129 43.457ZM198.116 45.354C200.58 47.108 213.207 68.505 273.307 172.771C284.101 191.496 288.408 199.89 288.702 202.771C289.286 208.504 286.543 213.245 281.038 216.021L276.576 218.271H190H103.424L98.962 216.021C93.454 213.244 90.716 208.506 91.296 202.758C91.605 199.7 101.988 180.898 134.923 123.758C161.285 78.022 179.347 47.718 181.226 46.071C182.92 44.585 185.25 43.171 186.403 42.927C189.854 42.198 195.257 43.318 198.116 45.354ZM105.395 49.441C104.908 50.229 105.219 50.401 106.348 49.968C107.91 49.368 107.912 49.544 106.385 52.548C104.3 56.647 104.569 56.426 102.589 55.667C101.06 55.08 101.113 54.78 103.12 52.643C104.346 51.338 104.899 50.271 104.349 50.271C103.799 50.271 102.339 51.346 101.105 52.659C99.644 54.214 98.16 54.864 96.853 54.522C95.112 54.067 95.035 53.807 96.276 52.567C97.062 51.78 99.46 50.511 101.603 49.748C106.441 48.023 106.262 48.038 105.395 49.441ZM120.065 50.394C125.307 52.649 126.133 53.741 123.18 54.514C122.046 54.81 119.98 53.724 117.695 51.63C113.386 47.682 113.555 47.594 120.065 50.394ZM117.409 52.616C120.061 54.455 120.149 54.695 118.409 55.327C115.962 56.216 115.329 55.807 113.41 52.098C111.711 48.811 111.971 48.845 117.409 52.616ZM110 53.271C110 55.617 109.558 56.271 107.974 56.271C106.045 56.271 106.023 56.128 107.5 53.271C108.353 51.621 109.265 50.271 109.526 50.271C109.787 50.271 110 51.621 110 53.271ZM186.207 52.021C182.69 55.076 99 201.28 99 204.369C99 210.541 94.832 210.271 190 210.271C285.194 210.271 281 210.544 281 204.356C281 201.817 258.676 161.464 255.781 158.771C254.31 157.402 254.04 156.907 267.844 180.9C274.53 192.521 280 202.914 280 203.995C280 205.076 279.177 206.706 278.171 207.616C276.499 209.129 268.927 209.271 189.826 209.271C107.281 209.271 103.234 209.187 101.655 207.442C100.745 206.436 100 204.81 100 203.829C100 201.841 183.149 57.079 186.334 53.521C187.442 52.283 189.092 51.271 190 51.271C190.908 51.271 192.557 52.283 193.663 53.521C194.769 54.759 208.622 78.271 224.447 105.771C249.924 150.044 258.944 165.129 253.532 154.412C248.207 143.867 195.47 53.481 193.791 52.021C192.684 51.058 190.978 50.271 190 50.271C189.022 50.271 187.315 51.058 186.207 52.021ZM114 55.462C114 55.907 113.325 56.271 112.5 56.271C111.523 56.271 111.011 55.313 111.032 53.521C111.062 50.887 111.126 50.853 112.532 52.712C113.339 53.78 114 55.017 114 55.462ZM97.2 55.953C97.585 56.159 97.015 57.826 95.935 59.657C94.354 62.337 93.484 62.895 91.485 62.513C88.468 61.936 88.384 60.944 91.036 57.221C92.929 54.562 94.132 54.315 97.2 55.953ZM131.337 61.287C129.22 63.285 126.449 62.756 124.75 60.03C123.787 58.486 123 56.817 123 56.32C123 55.824 123.787 55.224 124.75 54.987C126.78 54.486 132.622 60.074 131.337 61.287ZM102.762 57.103C103.735 57.721 103.77 58.632 102.914 61.087C101.812 64.25 100.615 64.828 97.582 63.664C95.582 62.897 95.589 61.827 97.615 58.736C99.297 56.169 100.626 55.747 102.762 57.103ZM122.982 59.482C125.115 62.989 124.414 64.227 120.279 64.256C118.611 64.267 117.842 63.461 117.194 61.021C115.726 55.489 119.882 54.384 122.982 59.482ZM110 60.771C110 64.086 109.82 64.271 106.594 64.271H103.187L104.261 60.771C105.088 58.079 105.874 57.271 107.668 57.271C109.667 57.271 110 57.771 110 60.771ZM115.902 60.42C116.506 62.152 117 63.727 117 63.92C117 64.113 115.65 64.271 114 64.271C111.238 64.271 111 63.993 111 60.771C111 56.055 114.298 55.819 115.902 60.42ZM93.17 68.29C92.799 72.18 92.702 72.271 88.92 72.271C85.094 72.271 85.057 72.234 85.666 69.021C86.757 63.262 87.662 62.257 90.781 63.344C93.283 64.217 93.513 64.692 93.17 68.29ZM133.947 66.021C135.536 71.742 135.339 72.271 131.617 72.271C128.953 72.271 128.105 71.792 127.63 70.021C126.544 65.968 126.965 64.22 129.25 63.302C132.686 61.921 132.832 62.006 133.947 66.021ZM101.631 65.665C101.704 65.723 101.54 67.234 101.268 69.021C100.822 71.95 100.439 72.271 97.387 72.271C94.471 72.271 94 71.934 94 69.853C94 65.346 94.921 64.308 98.34 64.958C100.078 65.288 101.559 65.606 101.631 65.665ZM126 68.83C126 72.096 125.822 72.271 122.5 72.271C119.18 72.271 119 72.095 119 68.837C119 65.844 119.352 65.359 121.75 65.052C125.588 64.56 126 64.926 126 68.83ZM108.418 65.878C109.356 66.238 110 67.662 110 69.378C110 72.1 109.757 72.271 105.883 72.271C102.102 72.271 101.816 72.088 102.37 70.021C102.701 68.783 102.979 67.209 102.986 66.521C103.001 65.196 105.782 64.866 108.418 65.878ZM117.393 66.853C118.902 70.786 118.11 72.271 114.5 72.271C111.324 72.271 111 72.009 111 69.438C111 67.879 111.3 66.304 111.667 65.938C112.94 64.665 116.789 65.28 117.393 66.853ZM84.471 76.966C86.892 89.873 97.246 98.655 110 98.62C117.499 98.599 122.064 96.91 127.488 92.148C131.511 88.615 136 79.964 136 75.742V73.271H149C156.15 73.271 162 73.619 162 74.043C162 74.468 147.459 100.006 129.687 130.793L97.374 186.771H51.098H4.822L2.911 184.41C1.085 182.154 1 179.763 1 130.594C1 96.099 1.351 78.483 2.065 77.149C2.651 76.054 4.114 74.762 5.315 74.278C6.517 73.794 24.662 73.369 45.639 73.334L83.777 73.271L84.471 76.966ZM92.445 74.521C92.655 75.209 93.069 77.182 93.365 78.906C93.858 81.774 93.639 82.093 90.792 82.663C89.081 83.005 87.488 83.092 87.253 82.857C86.454 82.058 85.12 74.885 85.62 74.076C86.419 72.784 92.026 73.15 92.445 74.521ZM101.259 76.521C101.809 80.196 100.662 81.41 97 81.03C94.889 80.811 94.452 80.187 94.19 77.021C93.886 73.353 93.955 73.271 97.326 73.271C100.449 73.271 100.819 73.577 101.259 76.521ZM109.813 77.021C110.112 80.121 109.967 80.271 106.672 80.271C103.804 80.271 103.108 79.838 102.578 77.725C101.693 74.2 102.659 73.107 106.344 73.465C109.097 73.732 109.54 74.186 109.813 77.021ZM117.813 76.521C117.538 79.379 117.108 79.809 114.25 80.084C111.133 80.385 111 80.252 111 76.834C111 73.417 111.146 73.271 114.563 73.271C117.981 73.271 118.114 73.404 117.813 76.521ZM126.136 73.74C126.394 73.999 126.42 75.799 126.193 77.74C125.855 80.643 125.37 81.271 123.472 81.271C118.447 81.271 117.83 80.208 119.558 74.521C119.915 73.343 125.121 72.726 126.136 73.74ZM135 75.122C135 76.14 134.493 78.427 133.873 80.205C132.962 82.818 132.339 83.329 130.623 82.868C129.455 82.555 128.162 82.292 127.75 82.285C126.854 82.268 126.79 78.657 127.63 75.521C128.435 72.517 135 72.161 135 75.122ZM377.089 76.132C378.915 78.388 379 80.783 379 130.271C379 179.758 378.915 182.154 377.089 184.41L375.178 186.771H328.902H282.626L250.313 130.793C232.541 100.006 218 74.46 218 74.026C218 73.591 253.365 73.356 296.589 73.503L375.177 73.771L377.089 76.132ZM103.955 88.021C104.032 90.15 99.216 89.418 97.557 87.048C95.3 83.827 95.633 82.446 98.75 82.087C100.866 81.844 101.778 82.348 102.705 84.271C103.368 85.646 103.93 87.334 103.955 88.021ZM110 84.802C110 87.157 109.452 88.544 108.355 88.965C106.348 89.735 104 86.833 104 83.58C104 81.681 104.533 81.271 107 81.271C109.767 81.271 110 81.545 110 84.802ZM116.381 84.021C114.844 90.455 111 91.348 111 85.271C111 81.488 111.163 81.271 114.019 81.271C116.805 81.271 116.987 81.483 116.381 84.021ZM125 82.867C125 83.194 124.228 84.769 123.284 86.367C122.044 88.466 120.797 89.271 118.784 89.271C115.573 89.271 115.675 89.503 117.098 85.42C118.039 82.72 118.681 82.271 121.598 82.271C123.469 82.271 125 82.539 125 82.867ZM17.4 84.036C16.795 84.44 15.811 85.699 15.214 86.834C12.309 92.36 21.035 97.2 24.465 91.965C27.625 87.141 22.076 80.914 17.4 84.036ZM34 85.271C31.598 87.673 31.431 90.559 33.571 92.7C35.431 94.559 40.101 94.77 41.8 93.071C43.789 91.082 43.226 86.543 40.777 84.828C37.84 82.77 36.407 82.864 34 85.271ZM51.655 85.1C49.719 87.239 49.484 91.355 51.2 93.071C54.164 96.035 61 93.155 61 88.942C61 86.709 57.456 83.271 55.155 83.271C54.14 83.271 52.565 84.094 51.655 85.1ZM96.178 86.698C97.817 89.996 97.806 90.089 95.678 90.674C94.057 91.119 92.758 90.458 90.6 88.088C87.893 85.115 87.826 84.853 89.6 84.157C93.121 82.776 94.493 83.305 96.178 86.698ZM130.21 84.091C131.789 84.719 131.762 85.02 129.862 88.021C127.749 91.358 126.502 91.875 124.156 90.388C123.046 89.685 123.094 88.989 124.431 86.404C126.063 83.248 127.073 82.844 130.21 84.091ZM106.466 93.206C107.886 95.952 107.858 96.181 106.019 96.765C103.583 97.538 94.258 93.593 95.572 92.346C96.634 91.338 99.491 90.556 102.724 90.387C104.239 90.308 105.433 91.208 106.466 93.206ZM110 93.271C110 94.921 109.787 96.271 109.526 96.271C109.265 96.271 108.353 94.921 107.5 93.271C106.023 90.414 106.045 90.271 107.974 90.271C109.558 90.271 110 90.925 110 93.271ZM112.9 92.521C111.178 95.83 111 95.869 111 92.938C111 91.207 111.539 90.271 112.535 90.271C113.807 90.271 113.87 90.656 112.9 92.521ZM117.155 93.372C113.338 96.841 112.394 96.695 114.123 92.9C114.975 91.031 116.069 90.279 117.911 90.3L120.5 90.33L117.155 93.372ZM100.031 91.991C100.072 92.988 104.998 96.606 105.556 96.048C105.787 95.818 104.631 94.635 102.988 93.42C101.344 92.205 100.014 91.562 100.031 91.991ZM124.476 92.233C125.081 93.211 118.112 97.271 115.828 97.271C114.261 97.271 121.061 91.367 122.691 91.312C123.346 91.289 124.149 91.704 124.476 92.233ZM342.133 100.435C341.573 101.901 340.111 103.418 338.884 103.808L336.654 104.516L338.967 105.753C340.239 106.434 341.828 108.015 342.498 109.266L343.715 111.542L344.373 108.922C344.803 107.208 345.937 106.074 347.651 105.644L350.271 104.986L347.995 103.769C346.744 103.099 345.142 101.475 344.435 100.161L343.151 97.771L342.133 100.435ZM172.43 112.593C171.862 114.073 187.364 160.035 188.973 161.644C189.676 162.347 190.324 162.347 191.027 161.644C192.636 160.035 208.138 114.073 207.57 112.593C207.177 111.568 203.226 111.271 190 111.271C176.774 111.271 172.823 111.568 172.43 112.593ZM76.557 132.091C76.175 133.295 74.686 134.896 73.247 135.649C70.663 137.003 70.658 137.028 72.82 137.714C74.024 138.096 75.625 139.585 76.378 141.024C77.732 143.608 77.757 143.613 78.443 141.451C78.825 140.247 80.314 138.646 81.753 137.893C84.337 136.539 84.342 136.514 82.18 135.828C80.976 135.446 79.375 133.957 78.622 132.518C77.268 129.934 77.243 129.929 76.557 132.091ZM297.673 144.415C297.384 145.517 296.215 146.664 295.074 146.962C292.445 147.649 292.409 148.883 294.997 149.56C296.096 149.847 297.379 151.121 297.848 152.39L298.702 154.697L299.916 152.428C300.584 151.179 301.921 149.846 302.887 149.465C304.43 148.856 304.251 148.383 301.42 145.591C298.424 142.634 298.16 142.552 297.673 144.415ZM182.923 172.194C174.801 180.316 184.589 193.155 194.855 187.846C203.88 183.179 200.245 169.271 190 169.271C186.742 169.271 185.216 169.902 182.923 172.194ZM304.5 205.161C292.736 210.59 289.294 226.198 297.788 235.591C303.614 242.033 316.466 243.204 323.389 237.923C332.352 231.087 333.668 217.905 326.186 209.895C320.358 203.655 311.807 201.788 304.5 205.161ZM319.056 205.806C319.546 206.108 317.934 208.285 315.473 210.642C312.017 213.954 311 215.649 311 218.1C311 221.75 309.831 222.102 307.025 219.296C304.648 216.919 303.741 213.703 304.176 209.199C304.424 206.631 305.083 205.677 307 205.109C309.55 204.354 317.445 204.81 319.056 205.806ZM307.055 220.611C309.584 222.872 309.975 223.673 308.886 224.363C305.279 226.647 294 223.815 294 220.625C294 217.94 296.896 212.285 299.681 209.531L302.471 206.771L303.155 212.254C303.71 216.706 304.443 218.278 307.055 220.611ZM326.909 212.623C328.057 214.481 329.274 217.389 329.613 219.087L330.23 222.173L326.404 220.222C321.798 217.874 318.879 217.765 314.95 219.797C312.141 221.25 312 221.223 312 219.247C312 215.916 314.671 211.676 318.163 209.465C322.015 207.026 323.862 207.693 326.909 212.623ZM54.093 217.098C53.42 218.355 51.886 219.785 50.685 220.276L48.5 221.169L50.827 221.857C52.106 222.235 53.623 223.72 54.196 225.158C54.936 227.013 55.378 227.336 55.719 226.271C55.983 225.446 57.338 223.807 58.73 222.63C61.148 220.583 61.172 220.46 59.273 219.858C58.18 219.511 56.843 218.234 56.301 217.02L55.316 214.812L54.093 217.098ZM326.04 221.291C330.242 223.435 330.632 224.468 328.936 228.956C327.827 231.893 323.22 237.271 321.813 237.271C321.366 237.271 321 235.717 321 233.818C321 229.294 319.289 225.691 316.173 223.648C313.76 222.067 313.732 221.94 315.518 220.634C318.125 218.728 321.419 218.934 326.04 221.291ZM303.923 226.45C306 226.479 308.667 225.985 309.849 225.352C311.731 224.345 312 224.462 312 226.285C312 229.804 309.33 233.778 305.627 235.772C302.153 237.643 302.067 237.643 299.909 235.721C297.688 233.744 294.062 226.831 294.022 224.495C294.005 223.531 294.75 223.607 297.074 224.809C298.764 225.683 301.846 226.422 303.923 226.45ZM318.449 227.501C320.556 230.511 320.536 238.852 318.418 239.664C316.395 240.44 309.176 240.425 306.239 239.638C304.095 239.063 304.21 238.816 308.489 234.832C312.274 231.308 313 230.033 313 226.916C313 223.543 313.18 223.297 314.949 224.244C316.021 224.817 317.596 226.283 318.449 227.501ZM205.615 249.667C205.239 251.168 203.996 252.322 202.259 252.784L199.5 253.518L202.188 254.457C203.688 254.981 205.315 256.583 205.87 258.084C206.861 260.76 206.868 260.762 207.558 258.487C207.939 257.231 209.432 255.58 210.875 254.817L213.5 253.431L210.75 252.376C209.238 251.795 208 250.661 208 249.855C208 247.316 206.24 247.178 205.615 249.667Z" fill="black"/>
</svg>
