<svg width="471" height="303" viewBox="0 0 471 303" fill="none" xmlns="http://www.w3.org/2000/svg">
<path fill-rule="evenodd" clip-rule="evenodd" d="M279.534 10.5C279.534 16.833 279.931 21 280.534 21C281.137 21 281.534 16.833 281.534 10.5C281.534 4.167 281.137 0 280.534 0C279.931 0 279.534 4.167 279.534 10.5ZM268.534 14.5C272.631 18.625 276.434 22 276.984 22C277.534 22 274.631 18.625 270.534 14.5C266.437 10.375 262.634 7 262.084 7C261.534 7 264.437 10.375 268.534 14.5ZM290.534 14.5C286.437 18.625 283.534 22 284.084 22C284.634 22 288.437 18.625 292.534 14.5C296.631 10.375 299.534 7 298.984 7C298.434 7 294.631 10.375 290.534 14.5ZM259.821 25.74C263.003 25.939 267.953 25.937 270.821 25.736C273.688 25.535 271.084 25.372 265.034 25.374C258.984 25.376 256.638 25.541 259.821 25.74ZM289.784 25.739C292.947 25.937 298.121 25.937 301.284 25.739C304.447 25.541 301.859 25.378 295.534 25.378C289.209 25.378 286.621 25.541 289.784 25.739ZM69.9396 31.992C68.3356 36.452 67.6596 37.161 63.5886 38.657C56.9576 41.093 56.8906 41.488 62.7356 43.706C67.6036 45.554 68.1956 46.134 70.0266 50.858C71.1226 53.686 72.2476 55.995 72.5266 55.989C72.8056 55.983 73.9336 53.662 75.0336 50.831C76.8736 46.097 77.4586 45.525 82.3316 43.69C85.2456 42.593 87.2706 41.389 86.8316 41.013C86.3926 40.638 83.9326 39.558 81.3656 38.614C77.1776 37.074 76.5146 36.389 74.9176 31.949C73.9396 29.227 72.8226 27 72.4366 27C72.0506 27 70.9266 29.246 69.9396 31.992ZM269.004 36.03C264.646 40.414 261.532 44 262.082 44C263.387 44 278.081 29.213 277.427 28.559C277.152 28.285 273.362 31.647 269.004 36.03ZM283.534 28.55C283.534 29.1 286.909 32.903 291.034 37C295.159 41.097 298.534 44 298.534 43.45C298.534 42.9 295.159 39.097 291.034 35C286.909 30.903 283.534 28 283.534 28.55ZM279.534 40.5C279.534 46.833 279.931 51 280.534 51C281.137 51 281.534 46.833 281.534 40.5C281.534 34.167 281.137 30 280.534 30C279.931 30 279.534 34.167 279.534 40.5ZM199.006 44.042C171.035 47.7 145.056 64.873 131.444 88.704L129.042 92.909L93.0136 93.204L56.9856 93.5L50.0426 96.92C32.4006 105.608 23.0006 124.318 26.9296 142.922C30.5906 160.254 44.0846 173.099 61.6196 175.944C65.1476 176.517 81.8076 176.988 98.6416 176.992L129.25 177L133.104 183.244C138.286 191.64 151.324 205.042 159.776 210.661C167.93 216.082 179.149 220.958 189.534 223.595C200.377 226.349 221.965 226.117 233.034 223.128C252.782 217.796 270.786 205.825 282.672 190.125C287.528 183.71 287.534 183.706 287.534 186.982C287.534 190.186 287.616 190.248 291.117 189.68C295.724 188.933 304.893 190.632 309.823 193.148C311.942 194.229 315.644 197.167 318.049 199.677L322.422 204.241L324.893 201.371C326.252 199.792 327.558 198.725 327.795 199C328.033 199.275 336.218 221.325 345.984 248C365.497 301.294 366.08 302.455 373.359 302.455C375.467 302.455 378.296 301.731 379.645 300.847C381.152 299.86 387.826 288.78 396.939 272.141C405.1 257.236 412.286 244.644 412.906 244.157C413.526 243.67 425.915 236.798 440.436 228.886C469.355 213.129 471.037 211.754 470.161 204.597C469.882 202.315 468.718 199.754 467.359 198.429C465.902 197.009 452.152 191.443 430.534 183.524C411.559 176.572 392.831 169.706 388.916 168.265L381.799 165.646L386.174 159.702C400.711 139.956 395.48 112.331 374.707 99.143C365.641 93.388 362.536 93 325.495 93H291.818L288.215 87.162C273.415 63.185 248.683 47.414 220.56 44.022C211.142 42.886 207.821 42.889 199.006 44.042ZM198.034 49.112C189.689 53.972 184.162 58.256 175.885 66.281L169.736 72.242L160.968 69.45L152.199 66.658L156.117 63.33C164.379 56.311 183.072 48.25 196.194 46.048C204.891 44.588 205.127 44.981 198.034 49.112ZM233.127 48.053C237.029 49.035 243.246 51.21 246.944 52.887C254.412 56.273 267.534 64.658 267.534 66.044C267.534 66.534 263.74 68.118 259.103 69.564L250.673 72.193L244.853 66.286C237.76 59.087 229.716 52.971 221.336 48.404L215.034 44.97L220.534 45.619C223.559 45.976 229.226 47.071 233.127 48.053ZM204.574 51.25C202.855 54.137 199.33 60.705 196.741 65.845L192.034 75.191L185.534 74.54C181.959 74.182 177.496 73.566 175.616 73.171L172.199 72.452L175.459 68.738C180.221 63.315 190.528 55.379 199.309 50.375C203.531 47.969 207.146 46 207.342 46C207.539 46 206.293 48.362 204.574 51.25ZM223.96 51.897C228.343 54.442 235.699 60.119 240.417 64.598L248.948 72.695L241.2 73.848C228.224 75.778 229.166 76.219 223.911 65.75C221.358 60.662 217.773 54.159 215.944 51.298C212.049 45.203 212.491 45.236 223.96 51.897ZM209.534 61.5V76H202.034C197.566 76 194.534 75.585 194.534 74.972C194.534 72.941 208.174 47 209.242 47C209.402 47 209.534 53.525 209.534 61.5ZM221.554 64.737C224.234 70.032 226.199 74.733 225.921 75.182C225.643 75.632 222.293 76 218.475 76H211.534V61.768V47.536L214.107 51.323C215.523 53.406 218.874 59.442 221.554 64.737ZM392.811 49.75C387.67 63.385 388.547 62.253 380.698 65.384C376.722 66.97 373.742 68.541 374.076 68.876C374.411 69.21 377.644 70.656 381.261 72.09C387.821 74.69 387.844 74.713 390.444 81.273C391.878 84.89 393.325 88.125 393.661 88.461C393.997 88.797 395.574 85.852 397.166 81.918L400.06 74.764L406.722 72.124C410.386 70.671 413.677 69.191 414.035 68.833C414.392 68.475 411.352 66.943 407.278 65.428L399.871 62.673L397.07 55.337C395.53 51.301 394.09 48 393.87 48C393.651 48 393.174 48.787 392.811 49.75ZM159.534 70.706C164.209 72.228 168.19 73.56 168.38 73.666C168.571 73.772 167.394 75.804 165.765 78.18C164.136 80.556 161.61 84.863 160.152 87.75L157.5 93H144.517C137.376 93 131.534 92.601 131.534 92.114C131.534 89.585 148.319 68.062 150.364 67.97C150.732 67.953 154.859 69.184 159.534 70.706ZM275.685 73.75C280.88 79.227 285.849 85.859 288.421 90.75L289.604 93H276.221H262.838L261.08 89.103C260.114 86.959 257.579 82.579 255.447 79.368L251.57 73.531L257.302 71.871C260.455 70.959 264.159 69.743 265.534 69.169C269.52 67.507 269.943 67.698 275.685 73.75ZM183.177 76.031L191.32 77.199L188.532 84.849L185.744 92.5L172.639 92.779C165.431 92.932 159.534 92.747 159.534 92.367C159.534 91.451 164.11 83.588 167.796 78.168C170.106 74.772 171.207 73.947 172.889 74.35C174.069 74.633 178.698 75.389 183.177 76.031ZM255.299 82.312C258.178 86.883 260.534 91.158 260.534 91.812C260.534 92.667 256.963 93 247.778 93H235.023L232.269 85.343C230.754 81.131 229.662 77.538 229.843 77.358C230.023 77.178 233.74 76.535 238.102 75.929C242.465 75.323 246.222 74.641 246.451 74.414C248.137 72.74 250.727 75.052 255.299 82.312ZM206.174 78H209.534V85.5V93H198.534C192.484 93 187.534 92.785 187.534 92.523C187.534 91.784 192.406 79.016 193.143 77.823C193.544 77.175 195.547 77.004 198.305 77.382C200.785 77.722 204.325 78 206.174 78ZM229.433 82.459C230.556 85.462 231.762 89.062 232.113 90.459L232.751 93H222.142H211.534V85.552V78.105L216.784 77.737C219.671 77.535 223.239 77.287 224.712 77.185C227.093 77.021 227.617 77.606 229.433 82.459ZM358.855 94.965C362.056 95.489 367.127 97.04 370.123 98.412C377.071 101.593 385.917 110.41 389.07 117.297C395.666 131.706 393.199 149.617 383.073 160.825L379.382 164.911L374.708 163.114C372.137 162.125 369.179 161.008 368.134 160.632C366.312 159.976 366.325 159.851 368.461 157.577L370.688 155.207L366.031 150.55C359.879 144.398 357.307 138.395 356.743 128.871L356.291 121.243L348.663 120.791C339.171 120.229 333.138 117.656 327.061 111.58C324.542 109.061 322.267 107 322.005 107C321.743 107 319.915 108.787 317.942 110.97C312.581 116.904 304.944 120.249 295.511 120.795L287.71 121.247V128.052C287.71 136.853 284.088 145.313 277.862 151.051L273.462 155.108L277.92 159.441C282.368 163.764 286.534 170.544 286.534 173.46C286.534 174.837 274.721 175 174.639 175C66.0216 175 62.5566 174.942 56.3466 173.024C39.9216 167.951 29.0996 154.517 27.8206 137.614C26.2826 117.275 40.8946 98.42 60.7596 95.112C68.0746 93.894 351.461 93.754 358.855 94.965ZM336.245 119.725C340.141 121.509 343.671 122.305 348.038 122.386L354.27 122.5L354.847 129.29C355.555 137.62 358.911 145.284 364.511 151.359L368.666 155.867L366.241 157.456C363.928 158.972 362.934 158.722 344.666 152.023C334.134 148.16 324.577 145 323.429 145C320.495 145 315.925 147.9 314.416 150.721C312.28 154.711 313.132 158.781 319.966 177.243C323.578 187.001 326.534 195.378 326.534 195.858C326.534 196.338 325.621 197.891 324.505 199.31L322.476 201.889L318.255 197.671C312.393 191.812 305.61 188.812 296.908 188.23L289.781 187.753L289.32 180.572C288.787 172.266 284.487 162.922 278.969 158.077L275.72 155.224L279.676 151.362C285.459 145.716 288.749 138.308 289.31 129.673L289.776 122.5L295.405 122.431C303.774 122.328 310.764 119.58 316.812 114.016L322.034 109.212L326.359 113.195C328.738 115.386 333.186 118.325 336.245 119.725ZM362.155 164.253C358.393 169.185 356.534 175.351 356.534 182.899V189.546L349.284 189.612C341.873 189.68 334.269 192.12 330.314 195.699C329.328 196.591 328.258 197.058 327.936 196.735C326.977 195.776 334.975 190.973 340.096 189.431C342.712 188.644 347.143 188 349.943 188H355.034L355.167 181.594C355.303 175.078 358.627 165.765 362.241 161.771C364.962 158.765 364.896 160.659 362.155 164.253ZM18.9446 173.5C18.5076 174.6 17.1986 177.973 16.0336 180.996C13.9726 186.347 13.7406 186.56 7.24857 189.056C3.58157 190.466 0.328572 191.871 0.0215716 192.179C-0.286428 192.486 2.74057 194.064 6.74657 195.685L14.0316 198.632L16.5926 205.292C18.0006 208.956 19.4046 212.205 19.7126 212.512C20.0196 212.82 21.5896 209.814 23.1996 205.833L26.1276 198.594L33.3906 195.657C37.3846 194.041 40.2886 192.382 39.8426 191.97C39.3976 191.558 36.1716 190.193 32.6736 188.936C26.7806 186.819 26.1736 186.316 24.4176 182.076C20.1866 171.86 19.8216 171.288 18.9446 173.5ZM158.534 178.32C158.534 179.046 160.897 183.231 163.784 187.619L169.034 195.597L159.735 198.588L150.437 201.579L145.183 196.039C140.163 190.747 135.191 184.088 132.647 179.25L131.464 177H144.999C155.543 177 158.534 177.292 158.534 178.32ZM188.627 184.521C191.621 193.203 192.816 192.011 179.093 194.036L171.151 195.207L168.481 191.935C167.012 190.135 164.368 186.039 162.604 182.831L159.399 177L172.716 177.001H186.034L188.627 184.521ZM209.534 184.5V192H201.219H192.903L190.259 184.5L187.615 177H198.575H209.534V184.5ZM232.534 177.878C232.534 178.361 231.457 181.624 230.142 185.128L227.749 191.5L219.642 191.79L211.534 192.081V184.54V177H222.034C227.809 177 232.534 177.395 232.534 177.878ZM260.092 178.75C259.276 180.929 253.999 189.732 251.612 192.896C249.889 195.181 249.622 195.221 243.351 194.129C239.786 193.508 235.471 193 233.761 193C232.051 193 230.408 192.604 230.109 192.121C229.81 191.638 230.749 188.038 232.195 184.121L234.824 177H247.786C259.714 177 260.696 177.14 260.092 178.75ZM287.534 178.938C287.534 181.013 277.625 194.693 272.816 199.257L269.911 202.013L263.972 199.622C260.706 198.306 256.618 196.928 254.887 196.558L251.741 195.886L257.137 187.291C260.106 182.563 262.534 178.313 262.534 177.847C262.534 177.381 268.159 177 275.034 177C286.735 177 287.534 177.124 287.534 178.938ZM209.534 207.732V222.464L207.171 218.982C204.081 214.428 195.914 199.11 195.089 196.321C194.371 193.895 195.783 193.434 204.784 193.15L209.534 193V207.732ZM223.906 193.868L226.777 194.5L221.108 205.5C217.99 211.55 214.57 217.625 213.509 219L211.578 221.5L211.556 207.25L211.534 193L216.284 193.118C218.897 193.183 222.326 193.521 223.906 193.868ZM195.908 201.866C197.987 206.192 201.415 212.604 203.527 216.116C205.639 219.627 207.206 222.661 207.01 222.857C206.401 223.466 195.365 216.927 188.534 211.91C184.959 209.284 179.827 204.881 177.129 202.126C171.589 196.468 171.314 196.862 182.048 195.069C192.156 193.379 191.729 193.17 195.908 201.866ZM238.212 195.075C242.514 195.667 246.459 196.564 246.979 197.071C248.126 198.187 240.181 206.053 231.289 212.606C225.703 216.723 213.534 223.612 213.534 222.658C213.534 222.454 215.703 218.51 218.355 213.893C221.006 209.277 224.356 202.913 225.799 199.75C227.243 196.587 228.866 194 229.406 194C229.947 194 233.909 194.484 238.212 195.075ZM188.586 214.218C190.539 215.638 195.039 218.414 198.586 220.388C205.827 224.419 204.878 224.815 193.372 222.565C179.818 219.915 167.032 214.289 156.791 206.47L152.299 203.04L155.166 201.878C156.744 201.239 160.734 199.926 164.034 198.961L170.034 197.207L177.534 204.422C181.659 208.389 186.632 212.798 188.586 214.218ZM260.784 200.282C264.496 201.443 267.534 202.717 267.534 203.112C267.534 204.456 257.789 210.988 249.901 214.931C241.195 219.283 230.695 222.492 221.838 223.509L216.034 224.175L222.998 220.027C231.457 214.989 241.8 206.738 246.534 201.253C250.375 196.802 249.789 196.841 260.784 200.282ZM267.252 219.107C264.975 224.253 264.349 224.866 259.65 226.555C256.834 227.568 254.869 228.698 255.282 229.067C255.696 229.435 258.127 230.515 260.686 231.467C264.765 232.984 265.55 233.769 267.067 237.848C268.019 240.407 269.095 242.835 269.46 243.245C269.825 243.654 270.959 241.53 271.981 238.524C273.731 233.377 274.119 232.966 278.675 231.453C281.334 230.57 283.734 229.485 284.007 229.043C284.28 228.601 282.174 227.398 279.327 226.37C274.517 224.632 273.994 224.111 271.942 219L269.733 213.5L267.252 219.107Z" fill="black"/>
</svg>
