<svg width="562" height="305" viewBox="0 0 562 305" fill="none" xmlns="http://www.w3.org/2000/svg">
<path fill-rule="evenodd" clip-rule="evenodd" d="M271.711 1.997C271.424 3.096 270.197 4.362 268.984 4.81L266.78 5.626L269.39 7.336C270.825 8.277 272 9.723 272 10.551C272 11.536 273.149 10.922 275.322 8.778C278.38 5.76 278.492 5.44 276.728 4.747C275.674 4.333 274.576 3.096 274.289 1.997C274.002 0.899002 273.422 0 273 0C272.578 0 271.998 0.899002 271.711 1.997ZM266 52.5V87H320.5H375V52.5V18H320.5H266V52.5ZM371.45 20.867C365.437 26.358 321.534 62 320.784 62C319.985 62 276.843 26.758 271.036 21.361C269.799 20.212 277.57 20 320.986 20C350.085 20 371.988 20.376 371.45 20.867ZM293.244 41.905L307.988 54.185L289.156 68.433C278.799 76.27 269.801 83.005 269.162 83.4C268.289 83.94 268 76.251 268 52.438V20.757L273.25 25.191C276.137 27.629 285.135 35.15 293.244 41.905ZM373.654 83.679C373.212 84.122 334.592 55.168 334.302 54.177C334.193 53.805 342.968 46.216 353.802 37.314L373.5 21.129L373.764 52.217C373.91 69.315 373.86 83.473 373.654 83.679ZM104 54C104 54.55 106.25 55 109 55C111.75 55 114 54.55 114 54C114 53.45 111.75 53 109 53C106.25 53 104 53.45 104 54ZM136.5 54C136.091 54.662 155.823 55 194.941 55C233.647 55 254 54.655 254 54C254 53.345 233.853 53 195.559 53C157.677 53 136.901 53.352 136.5 54ZM322.314 63.16C323.516 62.553 326.305 60.5 328.511 58.596L332.522 55.135L351.011 69.147C361.18 76.854 369.927 83.574 370.45 84.08C371.029 84.64 351.539 85 320.559 85H269.718L289.563 70.053L309.408 55.105L314.767 59.684C319.44 63.677 320.407 64.122 322.314 63.16ZM533.463 75.458C532.019 79.238 531.08 80.186 527.378 81.6C524.97 82.519 523 83.589 523 83.978C523 84.366 524.839 85.234 527.086 85.908C530.63 86.97 531.478 87.818 533.491 92.316C535.446 96.685 535.927 97.186 536.553 95.5C539.366 87.922 539.777 87.394 543.913 86.029C546.216 85.269 548.279 84.357 548.499 84.002C548.718 83.648 546.735 82.581 544.092 81.63C539.927 80.133 539.112 79.37 537.967 75.901C537.241 73.7 536.315 71.694 535.909 71.443C535.503 71.193 534.402 72.999 533.463 75.458ZM97 93.521C97 94.358 95.847 95.568 94.437 96.211L91.874 97.378L94.437 98.721C95.847 99.46 97 100.725 97 101.532C97 103.693 98.764 103.318 99.5 101C99.849 99.9 100.753 99 101.508 99C103.834 99 104.325 96.898 102.134 96.325C100.997 96.027 99.796 94.933 99.466 93.892C98.748 91.63 97 91.368 97 93.521ZM364.644 96.133C363.617 98.505 362.192 99.986 360.536 100.402C357.26 101.224 357.291 102.784 360.598 103.614C362.249 104.028 363.561 105.312 364.196 107.133C365.432 110.677 366.76 110.806 367.598 107.464C368.014 105.808 369.495 104.383 371.867 103.356L375.5 101.783L372.067 100.575C369.546 99.688 368.312 98.454 367.425 95.933L366.217 92.5L364.644 96.133ZM399 157V208H480.5H562V157V106H480.5H399V157ZM555.977 110.379C554.615 111.687 537.127 126.317 517.116 142.89C485.885 168.756 480.508 172.845 479.142 171.762C473.768 167.499 406.141 111.407 404.528 109.874C402.599 108.041 404.27 108 480.505 108H558.455L555.977 110.379ZM461.276 158.961C461.951 159.562 403.005 205 401.55 205C401.247 205 401 183.397 401 156.994V108.988L430.75 133.628C447.113 147.18 460.849 158.58 461.276 158.961ZM560 157.583C560 183.754 559.625 205.017 559.167 204.833C558.709 204.65 545.015 194.418 528.736 182.095L499.137 159.689L528.819 134.922C545.143 121.299 558.837 110.119 559.25 110.077C559.663 110.035 560 131.413 560 157.583ZM49 121C49 121.55 50.998 122 53.441 122C55.884 122 58.16 121.55 58.5 121C58.881 120.384 57.177 120 54.059 120C51.277 120 49 120.45 49 121ZM98 121C98 121.638 106.314 122 120.941 122C135.156 122 144.117 121.62 144.5 121C144.905 120.344 137.01 120 121.559 120C106.52 120 98 120.362 98 121ZM169 121C169 121.661 205.98 122 277.941 122C349.49 122 387.094 121.657 387.5 121C387.911 120.336 351.344 120 278.559 120C206.186 120 169 120.339 169 121ZM248.617 140.754C248.202 141.994 246.686 143.625 245.247 144.378C242.663 145.732 242.658 145.757 244.82 146.443C246.024 146.825 247.643 148.344 248.418 149.819L249.828 152.5L250.48 149.92C250.868 148.384 252.218 146.928 253.816 146.322L256.5 145.304L253.92 144.586C252.406 144.165 250.933 142.759 250.356 141.184C249.379 138.52 249.366 138.517 248.617 140.754ZM471.981 167.985C479.245 174.001 480.653 174.798 482.141 173.735C483.091 173.056 487.055 169.856 490.949 166.624L498.031 160.748L527.584 183.08C543.838 195.363 557.358 205.77 557.628 206.207C557.897 206.643 523.126 207 480.359 207C431.73 207 402.956 206.647 403.55 206.058C405.162 204.461 462.467 161.086 463.024 161.042C463.313 161.019 467.343 164.143 471.981 167.985ZM0 194C0 194.55 1.8 195 4 195C6.2 195 8 194.55 8 194C8 193.45 6.2 193 4 193C1.8 193 0 193.45 0 194ZM32 194C32 194.615 37 195 45 195C53 195 58 194.615 58 194C58 193.385 53 193 45 193C37 193 32 193.385 32 194ZM75 194C75 194.662 127.833 195 231.5 195C335.167 195 388 194.662 388 194C388 193.338 335.167 193 231.5 193C127.833 193 75 193.338 75 194ZM157.627 206.349C157.197 208.063 156.063 209.197 154.349 209.627L151.729 210.285L154.005 211.502C155.256 212.172 156.837 213.761 157.518 215.033L158.755 217.346L159.463 215.116C159.853 213.889 161.37 212.427 162.836 211.867L165.5 210.849L163.11 209.565C161.796 208.858 160.172 207.256 159.502 206.005L158.285 203.729L157.627 206.349ZM433.547 218.672C432.19 221.998 430.998 223.184 427.673 224.514L423.501 226.183L427.987 228.342C431.408 229.988 432.689 231.271 433.381 233.75C434.555 237.951 435.562 237.858 437.028 233.414C437.939 230.655 439.168 229.406 442.356 227.999L446.5 226.17L442.427 224.503C439.158 223.165 438.047 222.012 436.802 218.668L435.25 214.5L433.547 218.672ZM305 262V296H360H415V262V228H360H305V262ZM411 229.485C411 230.371 360.592 272.031 359.845 271.763C358.807 271.391 310.018 230.838 309.395 229.83C309.113 229.374 331.859 229 359.941 229C388.023 229 411 229.218 411 229.485ZM326.292 246.149C336.306 254.48 345.113 261.859 345.862 262.546C346.979 263.571 343.623 266.501 327.112 278.916L307 294.038V262.519C307 245.184 307.244 231 307.542 231C307.84 231 316.278 237.817 326.292 246.149ZM413 262.535V294.069L392.995 278.873C381.993 270.514 373.105 263.573 373.245 263.446C376.319 260.677 412.309 231 412.594 231C412.817 231 413 245.191 413 262.535ZM143.768 257.725C145.565 257.947 148.265 257.943 149.768 257.715C151.271 257.486 149.8 257.304 146.5 257.31C143.2 257.315 141.971 257.502 143.768 257.725ZM203.822 257.75C220.499 257.904 247.499 257.903 263.822 257.749C280.145 257.595 266.5 257.469 233.5 257.469C200.5 257.469 187.145 257.596 203.822 257.75ZM354.611 269.639L360.041 274.278L364.771 270.325C367.372 268.15 370.053 266.042 370.728 265.64C371.487 265.189 379.464 270.567 391.587 279.704L411.217 294.5L385.609 294.767C371.524 294.914 348.544 294.914 334.542 294.767L309.084 294.5L328.292 279.818C338.856 271.742 347.878 265.105 348.341 265.068C348.803 265.03 351.625 267.088 354.611 269.639ZM287.063 289.588C286.385 291.415 284.606 293.32 282.709 294.252L279.5 295.827L282.54 296.938C284.49 297.651 286.047 299.206 286.881 301.275L288.182 304.5L289.548 301.363C290.422 299.355 292.099 297.788 294.207 297.008L297.5 295.791L294.252 294.393C292.262 293.537 290.463 291.738 289.607 289.748L288.209 286.5L287.063 289.588Z" fill="black"/>
</svg>
